# xmcd
#
# Track frame offsets:
#	187
#	16225
#	33795
#	62007
#	77342
#	92212
#	104370
#	124020
#	140137
#	154777
#	170302
#	185452
#
# Disc length: 2698 seconds
#
# Revision: 1
# Processed by: cddbd v1.5.1PL0 Copyright (c) Steve Scherf et al.
# Submitted via: CDex 1.50Beta5
#
DISCID=900a880c
DTITLE=小山茉美 - フェナリナーサSONGフェスティバル
DYEAR=1900
DGENRE=Pop
TTITLE0=小山茉美/ミンキー・ステッキ・ドリミンパ
TTITLE1=志賀真理子/夢の中の輪舞
TTITLE2=小山茉美/あなたとわたしのタイムトラベル
TTITLE3=ブレッスン・フォー/Swing Swing地球に
TTITLE4=三ツ矢雄二/魔法の子守唄
TTITLE5=小山茉美/ラブ・イズ・ウインドー
TTITLE6=志賀真理子/オルゴールを止めないで
TTITLE7=小山茉美/あなたへのラブソング
TTITLE8=エジソンズ/GOOD DAY SUNSHINE
TTITLE9=小山茉美/Good Looking Tonight
TTITLE10=小山茉美/いつか王子さまが……
TTITLE11=小山茉美/ラブラブミンキーモモ
EXTD=
EXTT0=
EXTT1=
EXTT2=
EXTT3=
EXTT4=
EXTT5=
EXTT6=
EXTT7=
EXTT8=
EXTT9=
EXTT10=
EXTT11=
PLAYORDER=
